<svg xmlns="http://www.w3.org/2000/svg" xmlns:xlink="http://www.w3.org/1999/xlink" width="500" zoomAndPan="magnify" viewBox="0 0 375 374.999991" height="500" preserveAspectRatio="xMidYMid meet" version="1.0"><defs><g/><clipPath id="71d2d788d5"><path d="M 182.320312 149.164062 L 195.820312 149.164062 L 195.820312 163 L 182.320312 163 Z M 182.320312 149.164062 " clip-rule="nonzero"/></clipPath><clipPath id="f02ca88add"><path d="M 182.320312 161 L 195.820312 161 L 195.820312 171 L 182.320312 171 Z M 182.320312 161 " clip-rule="nonzero"/></clipPath><clipPath id="86c078cb9e"><path d="M 182.320312 169 L 195.820312 169 L 195.820312 179 L 182.320312 179 Z M 182.320312 169 " clip-rule="nonzero"/></clipPath><clipPath id="2b945c779a"><path d="M 182.320312 177 L 195.820312 177 L 195.820312 191.164062 L 182.320312 191.164062 Z M 182.320312 177 " clip-rule="nonzero"/></clipPath></defs><rect x="-37.5" width="450" fill="#ffffff" y="-37.499999" height="449.999989" fill-opacity="1"/><rect x="-37.5" width="450" fill="#ffffff" y="-37.499999" height="449.999989" fill-opacity="1"/><rect x="-37.5" width="450" fill="#1a3765" y="-37.499999" height="449.999989" fill-opacity="1"/><g fill="#f5f4f2" fill-opacity="1"><g transform="translate(120.171324, 188.872106)"><g><path d="M 17.484375 -26.265625 C 19.117188 -26.265625 20.632812 -26.050781 22.03125 -25.625 C 23.4375 -25.207031 24.671875 -24.660156 25.734375 -23.984375 C 26.804688 -23.316406 27.65625 -22.601562 28.28125 -21.84375 L 25.671875 -19.046875 C 24.554688 -20.015625 23.304688 -20.804688 21.921875 -21.421875 C 20.546875 -22.046875 19.066406 -22.359375 17.484375 -22.359375 C 15.523438 -22.359375 13.765625 -21.945312 12.203125 -21.125 C 10.640625 -20.3125 9.40625 -19.203125 8.5 -17.796875 C 7.59375 -16.398438 7.140625 -14.804688 7.140625 -13.015625 C 7.140625 -11.085938 7.625 -9.410156 8.59375 -7.984375 C 9.5625 -6.554688 10.828125 -5.457031 12.390625 -4.6875 C 13.953125 -3.914062 15.648438 -3.53125 17.484375 -3.53125 C 19.023438 -3.53125 20.445312 -3.773438 21.75 -4.265625 C 23.050781 -4.765625 24.097656 -5.441406 24.890625 -6.296875 C 25.679688 -7.160156 26.078125 -8.148438 26.078125 -9.265625 L 17.40625 -9.265625 L 17.40625 -13.203125 L 30.28125 -13.203125 C 30.332031 -12.878906 30.375 -12.546875 30.40625 -12.203125 C 30.445312 -11.859375 30.46875 -11.523438 30.46875 -11.203125 C 30.46875 -9.835938 30.253906 -8.519531 29.828125 -7.25 C 29.410156 -5.988281 28.804688 -4.910156 28.015625 -4.015625 C 26.921875 -2.648438 25.445312 -1.578125 23.59375 -0.796875 C 21.75 -0.015625 19.640625 0.375 17.265625 0.375 C 15.304688 0.375 13.460938 0.0546875 11.734375 -0.578125 C 10.015625 -1.210938 8.492188 -2.117188 7.171875 -3.296875 C 5.859375 -4.472656 4.828125 -5.882812 4.078125 -7.53125 C 3.335938 -9.175781 2.96875 -11.003906 2.96875 -13.015625 C 2.96875 -14.898438 3.332031 -16.640625 4.0625 -18.234375 C 4.800781 -19.835938 5.832031 -21.238281 7.15625 -22.4375 C 8.488281 -23.644531 10.035156 -24.582031 11.796875 -25.25 C 13.554688 -25.925781 15.453125 -26.265625 17.484375 -26.265625 Z M 17.484375 -26.265625 "/></g></g></g><g fill="#f5f4f2" fill-opacity="1"><g transform="translate(148.485027, 188.872106)"><g><path d="M 24.109375 0 L 21.421875 -6.328125 L 8.78125 -6.328125 L 6.0625 0 L 1.9375 0 L 13.0625 -26.046875 L 17.40625 -26.046875 L 28.453125 0 Z M 13.09375 -16.4375 L 10.421875 -10.1875 L 19.796875 -10.1875 L 17.03125 -16.59375 C 16.71875 -17.40625 16.398438 -18.238281 16.078125 -19.09375 C 15.753906 -19.957031 15.429688 -20.847656 15.109375 -21.765625 C 14.753906 -20.816406 14.414062 -19.894531 14.09375 -19 C 13.769531 -18.113281 13.4375 -17.257812 13.09375 -16.4375 Z M 13.09375 -16.4375 "/></g></g></g><g fill="#f5f4f2" fill-opacity="1"><g transform="translate(174.007258, 188.872106)"><g/></g></g><g fill="#f5f4f2" fill-opacity="1"><g transform="translate(182.601223, 188.872106)"><g/></g></g><g fill="#f5f4f2" fill-opacity="1"><g transform="translate(191.195187, 188.872106)"><g/></g></g><g fill="#f5f4f2" fill-opacity="1"><g transform="translate(199.788506, 188.872106)"><g><path d="M 27.5625 -26.078125 L 27.5625 -10.96875 C 27.5625 -8.8125 27.070312 -6.890625 26.09375 -5.203125 C 25.113281 -3.515625 23.753906 -2.1875 22.015625 -1.21875 C 20.285156 -0.257812 18.289062 0.21875 16.03125 0.21875 C 13.75 0.21875 11.742188 -0.257812 10.015625 -1.21875 C 8.296875 -2.1875 6.945312 -3.515625 5.96875 -5.203125 C 4.988281 -6.890625 4.5 -8.8125 4.5 -10.96875 L 4.5 -26.078125 L 8.515625 -26.078125 L 8.515625 -11.234375 C 8.515625 -9.773438 8.851562 -8.472656 9.53125 -7.328125 C 10.21875 -6.191406 11.128906 -5.289062 12.265625 -4.625 C 13.410156 -3.96875 14.664062 -3.640625 16.03125 -3.640625 C 17.445312 -3.640625 18.738281 -3.96875 19.90625 -4.625 C 21.070312 -5.289062 22 -6.191406 22.6875 -7.328125 C 23.382812 -8.472656 23.734375 -9.773438 23.734375 -11.234375 L 23.734375 -26.078125 Z M 27.5625 -26.078125 "/></g></g></g><g fill="#f5f4f2" fill-opacity="1"><g transform="translate(226.985998, 188.872106)"><g><path d="M 5.6875 -7.921875 C 6.882812 -6.429688 8.140625 -5.273438 9.453125 -4.453125 C 10.765625 -3.640625 12.410156 -3.234375 14.390625 -3.234375 C 15.410156 -3.234375 16.390625 -3.375 17.328125 -3.65625 C 18.273438 -3.945312 19.046875 -4.367188 19.640625 -4.921875 C 20.234375 -5.484375 20.53125 -6.1875 20.53125 -7.03125 C 20.53125 -8.269531 19.910156 -9.179688 18.671875 -9.765625 C 17.429688 -10.347656 15.695312 -10.8125 13.46875 -11.15625 C 10.664062 -11.632812 8.4375 -12.472656 6.78125 -13.671875 C 5.132812 -14.867188 4.3125 -16.632812 4.3125 -18.96875 C 4.3125 -20.507812 4.769531 -21.835938 5.6875 -22.953125 C 6.601562 -24.066406 7.816406 -24.921875 9.328125 -25.515625 C 10.847656 -26.117188 12.515625 -26.421875 14.328125 -26.421875 C 16.609375 -26.421875 18.582031 -26.019531 20.25 -25.21875 C 21.925781 -24.425781 23.238281 -23.300781 24.1875 -21.84375 L 21.421875 -18.96875 C 20.628906 -20.113281 19.628906 -21.039062 18.421875 -21.75 C 17.222656 -22.457031 15.820312 -22.8125 14.21875 -22.8125 C 12.601562 -22.8125 11.242188 -22.492188 10.140625 -21.859375 C 9.035156 -21.222656 8.484375 -20.335938 8.484375 -19.203125 C 8.484375 -17.878906 9.066406 -16.929688 10.234375 -16.359375 C 11.398438 -15.796875 12.945312 -15.351562 14.875 -15.03125 C 16.144531 -14.832031 17.363281 -14.554688 18.53125 -14.203125 C 19.695312 -13.859375 20.742188 -13.40625 21.671875 -12.84375 C 22.597656 -12.289062 23.332031 -11.609375 23.875 -10.796875 C 24.425781 -9.992188 24.703125 -9.007812 24.703125 -7.84375 C 24.703125 -6.1875 24.273438 -4.742188 23.421875 -3.515625 C 22.566406 -2.285156 21.34375 -1.328125 19.75 -0.640625 C 18.164062 0.0351562 16.296875 0.375 14.140625 0.375 C 11.859375 0.375 9.785156 -0.0195312 7.921875 -0.8125 C 6.066406 -1.613281 4.429688 -2.90625 3.015625 -4.6875 Z M 5.6875 -7.921875 "/></g></g></g><g fill="#f5f4f2" fill-opacity="1"><g transform="translate(113.196817, 216.847179)"><g><path d="M 7.75 -22.796875 L 16.125 -10.609375 L 24.578125 -22.796875 L 27.90625 -22.796875 L 27.90625 0 L 24.390625 0 L 24.390625 -9.46875 C 24.390625 -10.863281 24.414062 -12.179688 24.46875 -13.421875 C 24.519531 -14.671875 24.613281 -15.914062 24.75 -17.15625 L 17.125 -6.546875 L 14.984375 -6.546875 L 7.453125 -17.125 C 7.585938 -15.882812 7.679688 -14.644531 7.734375 -13.40625 C 7.785156 -12.175781 7.8125 -10.863281 7.8125 -9.46875 L 7.8125 0 L 4.296875 0 L 4.296875 -22.796875 Z M 7.75 -22.796875 "/></g></g></g><g fill="#f5f4f2" fill-opacity="1"><g transform="translate(141.126427, 216.847179)"><g><path d="M 21.09375 0 L 18.75 -5.53125 L 7.6875 -5.53125 L 5.3125 0 L 1.6875 0 L 11.421875 -22.796875 L 15.234375 -22.796875 L 24.90625 0 Z M 11.46875 -14.390625 L 9.125 -8.921875 L 17.328125 -8.921875 L 14.90625 -14.515625 C 14.625 -15.234375 14.34375 -15.96875 14.0625 -16.71875 C 13.78125 -17.46875 13.5 -18.242188 13.21875 -19.046875 C 12.914062 -18.222656 12.625 -17.421875 12.34375 -16.640625 C 12.0625 -15.859375 11.769531 -15.109375 11.46875 -14.390625 Z M 11.46875 -14.390625 "/></g></g></g><g fill="#f5f4f2" fill-opacity="1"><g transform="translate(163.456638, 216.847179)"><g><path d="M 9.28125 0 L 9.28125 -19.40625 L 1.984375 -19.40625 L 1.984375 -22.796875 L 20.28125 -22.796875 L 20.28125 -19.40625 L 12.796875 -19.40625 L 12.796875 0 Z M 9.28125 0 "/></g></g></g><g fill="#f5f4f2" fill-opacity="1"><g transform="translate(181.457077, 216.847179)"><g><path d="M 7.8125 -22.796875 L 7.8125 -13 L 21 -13 L 21 -22.796875 L 24.515625 -22.796875 L 24.515625 0 L 21 0 L 21 -9.609375 L 7.8125 -9.609375 L 7.8125 0 L 4.296875 0 L 4.296875 -22.796875 Z M 7.8125 -22.796875 "/></g></g></g><g fill="#f5f4f2" fill-opacity="1"><g transform="translate(205.968455, 216.847179)"><g><path d="M 4.296875 -22.796875 L 20.484375 -22.796875 L 20.484375 -19.40625 L 7.8125 -19.40625 L 7.8125 -13.390625 L 18.6875 -13.390625 L 18.6875 -10 L 7.8125 -10 L 7.8125 -3.390625 L 20.484375 -3.390625 L 20.484375 0 L 4.296875 0 Z M 4.296875 -22.796875 "/></g></g></g><g fill="#f5f4f2" fill-opacity="1"><g transform="translate(225.72685, 216.847179)"><g><path d="M 34.421875 -22.796875 L 26.3125 0 L 23.875 0 L 17.84375 -14.125 L 11.890625 0 L 9.375 0 L 1.65625 -22.796875 L 5.46875 -22.796875 L 10.03125 -8.890625 C 10.226562 -8.304688 10.398438 -7.722656 10.546875 -7.140625 C 10.703125 -6.566406 10.84375 -6.007812 10.96875 -5.46875 C 11.144531 -6.007812 11.335938 -6.566406 11.546875 -7.140625 C 11.753906 -7.722656 11.972656 -8.304688 12.203125 -8.890625 L 16.375 -18.859375 L 19.609375 -18.859375 L 23.640625 -8.921875 C 23.878906 -8.296875 24.101562 -7.695312 24.3125 -7.125 C 24.519531 -6.5625 24.707031 -6.03125 24.875 -5.53125 C 25.007812 -6.050781 25.15625 -6.601562 25.3125 -7.1875 C 25.476562 -7.78125 25.671875 -8.390625 25.890625 -9.015625 L 30.640625 -22.796875 Z M 34.421875 -22.796875 "/></g></g></g><g fill="#f5f4f2" fill-opacity="1"><g transform="translate(124.862482, 228.810718)"><g><path d="M 0.910156 0 L 1.695312 0 L 1.695312 -2.632812 L 4.257812 -2.632812 L 4.257812 -3.355469 L 1.695312 -3.355469 L 1.695312 -5.519531 L 4.492188 -5.519531 L 4.492188 -6.25 L 0.910156 -6.25 Z M 0.910156 0 "/></g></g></g><g fill="#f5f4f2" fill-opacity="1"><g transform="translate(130.639693, 228.810718)"><g><path d="M 3.25 0.105469 C 4.757812 0.105469 5.671875 -0.882812 5.671875 -2.542969 L 5.671875 -6.25 L 4.882812 -6.25 L 4.882812 -2.597656 C 4.882812 -1.320312 4.320312 -0.660156 3.25 -0.660156 C 2.1875 -0.660156 1.617188 -1.320312 1.617188 -2.597656 L 1.617188 -6.25 L 0.839844 -6.25 L 0.839844 -2.542969 C 0.839844 -0.882812 1.742188 0.105469 3.25 0.105469 Z M 3.25 0.105469 "/></g></g></g><g fill="#f5f4f2" fill-opacity="1"><g transform="translate(137.943807, 228.810718)"><g><path d="M 0.910156 0 L 4.734375 0 L 4.734375 -0.75 L 1.695312 -0.75 L 1.695312 -6.25 L 0.910156 -6.25 Z M 0.910156 0 "/></g></g></g><g fill="#f5f4f2" fill-opacity="1"><g transform="translate(143.747802, 228.810718)"><g><path d="M 0.910156 0 L 4.734375 0 L 4.734375 -0.75 L 1.695312 -0.75 L 1.695312 -6.25 L 0.910156 -6.25 Z M 0.910156 0 "/></g></g></g><g fill="#f5f4f2" fill-opacity="1"><g transform="translate(149.551799, 228.810718)"><g/></g></g><g fill="#f5f4f2" fill-opacity="1"><g transform="translate(152.560953, 228.810718)"><g><path d="M 2.992188 0.117188 C 4.359375 0.117188 5.242188 -0.554688 5.242188 -1.644531 C 5.242188 -2.5625 4.625 -3.117188 3.027344 -3.507812 C 1.8125 -3.804688 1.410156 -4.125 1.410156 -4.644531 C 1.410156 -5.242188 1.945312 -5.617188 2.839844 -5.617188 C 3.757812 -5.617188 4.332031 -5.152344 4.347656 -4.402344 L 5.125 -4.402344 C 5.117188 -5.617188 4.242188 -6.367188 2.839844 -6.367188 C 1.472656 -6.367188 0.605469 -5.695312 0.605469 -4.644531 C 0.605469 -3.679688 1.292969 -3.144531 2.832031 -2.777344 C 3.957031 -2.507812 4.429688 -2.195312 4.429688 -1.617188 C 4.429688 -1 3.875 -0.632812 2.992188 -0.632812 C 2.019531 -0.632812 1.339844 -1.117188 1.320312 -1.917969 L 0.535156 -1.917969 C 0.542969 -0.695312 1.5 0.117188 2.992188 0.117188 Z M 2.992188 0.117188 "/></g></g></g><g fill="#f5f4f2" fill-opacity="1"><g transform="translate(159.132869, 228.810718)"><g><path d="M 2.417969 0 L 3.207031 0 L 3.207031 -5.5 L 5.3125 -5.5 L 5.3125 -6.25 L 0.304688 -6.25 L 0.304688 -5.5 L 2.417969 -5.5 Z M 2.417969 0 "/></g></g></g><g fill="#f5f4f2" fill-opacity="1"><g transform="translate(165.552992, 228.810718)"><g><path d="M 0.152344 0 L 0.992188 0 L 1.5625 -1.417969 L 4.609375 -1.417969 L 5.195312 0 L 6.027344 0 L 3.457031 -6.25 L 2.722656 -6.25 Z M 1.867188 -2.152344 L 3.089844 -5.152344 L 4.3125 -2.152344 Z M 1.867188 -2.152344 "/></g></g></g><g fill="#f5f4f2" fill-opacity="1"><g transform="translate(172.526724, 228.810718)"><g><path d="M 3.679688 0.117188 C 5.195312 0.117188 6.429688 -0.804688 6.804688 -2.195312 L 5.972656 -2.195312 C 5.652344 -1.257812 4.769531 -0.667969 3.707031 -0.667969 C 2.3125 -0.667969 1.320312 -1.679688 1.320312 -3.125 C 1.320312 -4.570312 2.3125 -5.582031 3.707031 -5.582031 C 4.742188 -5.582031 5.589844 -5.027344 5.910156 -4.125 L 6.75 -4.125 C 6.339844 -5.5 5.152344 -6.367188 3.679688 -6.367188 C 1.839844 -6.367188 0.519531 -5.007812 0.519531 -3.125 C 0.519531 -1.242188 1.839844 0.117188 3.679688 0.117188 Z M 3.679688 0.117188 "/></g></g></g><g fill="#f5f4f2" fill-opacity="1"><g transform="translate(180.607682, 228.810718)"><g><path d="M 0.910156 0 L 1.695312 0 L 1.695312 -2.8125 L 2.589844 -2.8125 C 2.832031 -2.8125 3.042969 -2.832031 3.242188 -2.867188 L 4.859375 0 L 5.769531 0 L 3.972656 -3.152344 C 4.332031 -3.382812 4.582031 -3.742188 4.757812 -4.214844 L 5.527344 -6.25 L 4.695312 -6.25 L 4.054688 -4.527344 C 3.804688 -3.847656 3.4375 -3.5625 2.589844 -3.5625 L 1.695312 -3.5625 L 1.695312 -6.25 L 0.910156 -6.25 Z M 0.910156 0 "/></g></g></g><g fill="#f5f4f2" fill-opacity="1"><g transform="translate(187.509977, 228.810718)"><g/></g></g><g fill="#f5f4f2" fill-opacity="1"><g transform="translate(190.519132, 228.810718)"><g><path d="M 0.910156 0 L 3.070312 0 C 4.992188 0 6.277344 -1.277344 6.277344 -3.125 C 6.277344 -4.972656 4.992188 -6.25 3.070312 -6.25 L 0.910156 -6.25 Z M 1.695312 -0.75 L 1.695312 -5.5 L 3.035156 -5.5 C 4.492188 -5.5 5.472656 -4.546875 5.472656 -3.125 C 5.472656 -1.707031 4.5 -0.75 3.070312 -0.75 Z M 1.695312 -0.75 "/></g></g></g><g fill="#f5f4f2" fill-opacity="1"><g transform="translate(198.108982, 228.810718)"><g><path d="M 0.910156 0 L 4.804688 0 L 4.804688 -0.730469 L 1.695312 -0.730469 L 1.695312 -2.820312 L 4.484375 -2.820312 L 4.484375 -3.542969 L 1.695312 -3.542969 L 1.695312 -5.519531 L 4.707031 -5.519531 L 4.707031 -6.25 L 0.910156 -6.25 Z M 0.910156 0 "/></g></g></g><g fill="#f5f4f2" fill-opacity="1"><g transform="translate(204.288014, 228.810718)"><g><path d="M 2.644531 0 L 3.375 0 L 5.859375 -6.25 L 5.027344 -6.25 L 3.980469 -3.617188 L 3.007812 -1.132812 L 2.027344 -3.617188 L 0.992188 -6.25 L 0.152344 -6.25 Z M 2.644531 0 "/></g></g></g><g fill="#f5f4f2" fill-opacity="1"><g transform="translate(211.092085, 228.810718)"><g><path d="M 0.910156 0 L 4.804688 0 L 4.804688 -0.730469 L 1.695312 -0.730469 L 1.695312 -2.820312 L 4.484375 -2.820312 L 4.484375 -3.542969 L 1.695312 -3.542969 L 1.695312 -5.519531 L 4.707031 -5.519531 L 4.707031 -6.25 L 0.910156 -6.25 Z M 0.910156 0 "/></g></g></g><g fill="#f5f4f2" fill-opacity="1"><g transform="translate(217.271117, 228.810718)"><g><path d="M 0.910156 0 L 4.734375 0 L 4.734375 -0.75 L 1.695312 -0.75 L 1.695312 -6.25 L 0.910156 -6.25 Z M 0.910156 0 "/></g></g></g><g fill="#f5f4f2" fill-opacity="1"><g transform="translate(223.075108, 228.810718)"><g><path d="M 3.75 0.117188 C 5.652344 0.117188 6.992188 -1.222656 6.992188 -3.125 C 6.992188 -5.027344 5.652344 -6.367188 3.75 -6.367188 C 1.847656 -6.367188 0.519531 -5.027344 0.519531 -3.125 C 0.519531 -1.222656 1.847656 0.117188 3.75 0.117188 Z M 1.320312 -3.125 C 1.320312 -4.582031 2.3125 -5.582031 3.75 -5.582031 C 5.1875 -5.582031 6.179688 -4.582031 6.179688 -3.125 C 6.179688 -1.667969 5.1875 -0.667969 3.75 -0.667969 C 2.3125 -0.667969 1.320312 -1.667969 1.320312 -3.125 Z M 1.320312 -3.125 "/></g></g></g><g fill="#f5f4f2" fill-opacity="1"><g transform="translate(231.370368, 228.810718)"><g><path d="M 0.910156 0 L 1.695312 0 L 1.695312 -2.054688 L 3.027344 -2.054688 C 4.4375 -2.054688 5.347656 -2.867188 5.347656 -4.152344 C 5.347656 -5.429688 4.4375 -6.25 3.027344 -6.25 L 0.910156 -6.25 Z M 1.695312 -2.785156 L 1.695312 -5.5 L 3.007812 -5.5 C 4.019531 -5.5 4.546875 -5.035156 4.546875 -4.144531 C 4.546875 -3.25 4.019531 -2.785156 3.007812 -2.785156 Z M 1.695312 -2.785156 "/></g></g></g><g fill="#f5f4f2" fill-opacity="1"><g transform="translate(237.870849, 228.810718)"><g><path d="M 0.910156 0 L 4.804688 0 L 4.804688 -0.730469 L 1.695312 -0.730469 L 1.695312 -2.820312 L 4.484375 -2.820312 L 4.484375 -3.542969 L 1.695312 -3.542969 L 1.695312 -5.519531 L 4.707031 -5.519531 L 4.707031 -6.25 L 0.910156 -6.25 Z M 0.910156 0 "/></g></g></g><g fill="#f5f4f2" fill-opacity="1"><g transform="translate(244.049875, 228.810718)"><g><path d="M 0.910156 0 L 1.695312 0 L 1.695312 -2.242188 L 3.070312 -2.242188 L 4.597656 0 L 5.546875 0 L 3.972656 -2.320312 C 4.882812 -2.542969 5.445312 -3.230469 5.445312 -4.242188 C 5.445312 -5.484375 4.589844 -6.25 3.292969 -6.25 L 0.910156 -6.25 Z M 1.695312 -2.992188 L 1.695312 -5.5 L 3.207031 -5.5 C 4.117188 -5.5 4.644531 -5.035156 4.644531 -4.242188 C 4.644531 -3.445312 4.117188 -2.992188 3.207031 -2.992188 Z M 1.695312 -2.992188 "/></g></g></g><g clip-path="url(#71d2d788d5)"><path fill="#f7f4ed" d="M 195.804688 156.007812 L 195.804688 157.199219 L 193.042969 158.246094 L 193.042969 155.984375 C 193.042969 153.914062 191.460938 152.117188 189.363281 151.964844 C 189.09375 151.945312 188.824219 151.953125 188.558594 151.988281 C 188.289062 152.023438 188.03125 152.082031 187.773438 152.167969 C 187.519531 152.253906 187.277344 152.363281 187.042969 152.5 C 186.8125 152.632812 186.597656 152.789062 186.398438 152.96875 C 186.199219 153.144531 186.019531 153.34375 185.859375 153.554688 C 185.699219 153.769531 185.5625 153.996094 185.449219 154.238281 C 185.339844 154.476562 185.25 154.726562 185.191406 154.984375 C 185.128906 155.242188 185.097656 155.503906 185.089844 155.769531 C 185.074219 156.335938 185.503906 156.847656 186.078125 156.847656 C 186.34375 156.851562 186.578125 156.761719 186.769531 156.582031 C 186.964844 156.398438 187.070312 156.179688 187.082031 155.914062 C 187.125 155.007812 187.691406 154.179688 188.589844 153.972656 C 188.886719 153.898438 189.183594 153.898438 189.480469 153.960938 C 189.777344 154.023438 190.046875 154.148438 190.285156 154.332031 C 190.527344 154.519531 190.710938 154.746094 190.84375 155.015625 C 190.976562 155.285156 191.046875 155.570312 191.046875 155.871094 C 191.046875 156.332031 190.976562 156.78125 190.835938 157.222656 C 190.699219 157.664062 190.496094 158.074219 190.230469 158.453125 C 189.964844 158.835938 189.648438 159.167969 189.28125 159.453125 C 188.914062 159.738281 188.511719 159.964844 188.074219 160.132812 L 182.335938 162.308594 L 182.335938 155.859375 C 182.335938 155.429688 182.375 155.003906 182.460938 154.582031 C 182.542969 154.160156 182.667969 153.75 182.835938 153.351562 C 183 152.953125 183.203125 152.574219 183.441406 152.21875 C 183.683594 151.859375 183.957031 151.523438 184.261719 151.21875 C 184.566406 150.910156 184.898438 150.636719 185.261719 150.394531 C 185.621094 150.148438 186 149.945312 186.402344 149.773438 C 186.804688 149.601562 187.21875 149.472656 187.644531 149.382812 C 188.070312 149.289062 188.503906 149.242188 188.9375 149.234375 C 192.714844 149.164062 195.804688 152.292969 195.804688 156.007812 Z M 195.804688 156.007812 " fill-opacity="1" fill-rule="nonzero"/></g><g clip-path="url(#f02ca88add)"><path fill="#f6851f" d="M 195.804688 161.109375 L 195.804688 165.277344 L 182.335938 170.386719 L 182.335938 166.21875 Z M 195.804688 161.109375 " fill-opacity="1" fill-rule="nonzero"/></g><g clip-path="url(#86c078cb9e)"><path fill="#f6851f" d="M 195.804688 169.1875 L 195.804688 173.355469 L 182.335938 178.464844 L 182.335938 174.296875 Z M 195.804688 169.1875 " fill-opacity="1" fill-rule="nonzero"/></g><g clip-path="url(#2b945c779a)"><path fill="#f7f4ed" d="M 195.804688 177.261719 L 195.804688 184.316406 C 195.804688 188.027344 192.714844 191.160156 188.9375 191.089844 C 188.503906 191.082031 188.070312 191.03125 187.644531 190.941406 C 187.21875 190.851562 186.804688 190.71875 186.402344 190.550781 C 186 190.378906 185.621094 190.171875 185.261719 189.929688 C 184.898438 189.6875 184.566406 189.410156 184.261719 189.105469 C 183.957031 188.796875 183.683594 188.464844 183.441406 188.105469 C 183.203125 187.746094 183 187.367188 182.835938 186.972656 C 182.667969 186.574219 182.546875 186.164062 182.460938 185.742188 C 182.375 185.320312 182.335938 184.894531 182.335938 184.464844 L 182.335938 182.375 L 186.40625 180.828125 C 186.695312 180.71875 186.996094 180.644531 187.300781 180.605469 C 187.609375 180.566406 187.917969 180.566406 188.222656 180.601562 C 188.53125 180.636719 188.828125 180.707031 189.121094 180.816406 C 189.410156 180.921875 189.683594 181.0625 189.9375 181.234375 C 190.191406 181.40625 190.421875 181.605469 190.628906 181.835938 C 190.835938 182.0625 191.011719 182.308594 191.15625 182.578125 C 191.296875 182.847656 191.40625 183.132812 191.480469 183.429688 C 191.558594 183.722656 191.59375 184.023438 191.59375 184.328125 C 191.59375 185.539062 190.753906 186.640625 189.546875 186.859375 C 189.363281 186.894531 189.179688 186.910156 188.996094 186.902344 C 188.8125 186.898438 188.628906 186.875 188.453125 186.828125 C 188.273438 186.785156 188.101562 186.722656 187.9375 186.640625 C 187.769531 186.558594 187.617188 186.460938 187.472656 186.347656 C 187.328125 186.234375 187.199219 186.105469 187.085938 185.964844 C 186.96875 185.820312 186.871094 185.667969 186.792969 185.507812 C 186.710938 185.34375 186.648438 185.171875 186.605469 184.996094 C 186.5625 184.820312 186.539062 184.640625 186.535156 184.460938 C 186.527344 184.054688 186.273438 183.679688 185.871094 183.59375 C 185.746094 183.566406 185.617188 183.5625 185.492188 183.59375 C 185.363281 183.621094 185.25 183.675781 185.144531 183.753906 C 185.042969 183.835938 184.964844 183.933594 184.90625 184.046875 C 184.851562 184.164062 184.820312 184.285156 184.820312 184.414062 C 184.824219 184.695312 184.851562 184.976562 184.910156 185.253906 C 184.96875 185.53125 185.054688 185.800781 185.167969 186.058594 C 185.28125 186.320312 185.417969 186.566406 185.582031 186.796875 C 185.746094 187.027344 185.933594 187.242188 186.140625 187.4375 C 186.351562 187.632812 186.578125 187.804688 186.820312 187.953125 C 187.0625 188.105469 187.320312 188.226562 187.589844 188.324219 C 187.859375 188.425781 188.136719 188.496094 188.421875 188.539062 C 188.703125 188.582031 188.988281 188.597656 189.277344 188.582031 C 191.554688 188.472656 193.304688 186.539062 193.304688 184.292969 L 193.304688 178.210938 Z M 195.804688 177.261719 " fill-opacity="1" fill-rule="nonzero"/></g></svg>