<svg xmlns="http://www.w3.org/2000/svg" xmlns:xlink="http://www.w3.org/1999/xlink" width="1600" zoomAndPan="magnify" viewBox="0 0 1200 374.999991" height="500" preserveAspectRatio="xMidYMid meet" version="1.0"><defs><g/><clipPath id="19413e7430"><path d="M 591.34375 80.488281 L 620.59375 80.488281 L 620.59375 110 L 591.34375 110 Z M 591.34375 80.488281 " clip-rule="nonzero"/></clipPath><clipPath id="45fa36b877"><path d="M 591.34375 106 L 620.59375 106 L 620.59375 128 L 591.34375 128 Z M 591.34375 106 " clip-rule="nonzero"/></clipPath><clipPath id="545e6534ca"><path d="M 591.34375 124 L 620.59375 124 L 620.59375 146 L 591.34375 146 Z M 591.34375 124 " clip-rule="nonzero"/></clipPath><clipPath id="05dd95ba1e"><path d="M 591.34375 142 L 620.59375 142 L 620.59375 173.488281 L 591.34375 173.488281 Z M 591.34375 142 " clip-rule="nonzero"/></clipPath></defs><rect x="-120" width="1440" fill="#ffffff" y="-37.499999" height="449.999989" fill-opacity="1"/><rect x="-120" width="1440" fill="#ffffff" y="-37.499999" height="449.999989" fill-opacity="1"/><rect x="-120" width="1440" fill="#1a3765" y="-37.499999" height="449.999989" fill-opacity="1"/><g fill="#f5f4f2" fill-opacity="1"><g transform="translate(426.295914, 162.568355)"><g><path d="M 45.125 -67.78125 C 49.34375 -67.78125 53.257812 -67.234375 56.875 -66.140625 C 60.488281 -65.054688 63.671875 -63.648438 66.421875 -61.921875 C 69.179688 -60.191406 71.359375 -58.335938 72.953125 -56.359375 L 66.234375 -49.15625 C 63.359375 -51.644531 60.144531 -53.691406 56.59375 -55.296875 C 53.039062 -56.898438 49.21875 -57.703125 45.125 -57.703125 C 40.0625 -57.703125 35.515625 -56.644531 31.484375 -54.53125 C 27.453125 -52.414062 24.269531 -49.550781 21.9375 -45.9375 C 19.601562 -42.320312 18.4375 -38.207031 18.4375 -33.59375 C 18.4375 -28.601562 19.679688 -24.269531 22.171875 -20.59375 C 24.671875 -16.914062 27.9375 -14.082031 31.96875 -12.09375 C 36 -10.113281 40.382812 -9.125 45.125 -9.125 C 49.09375 -9.125 52.753906 -9.757812 56.109375 -11.03125 C 59.472656 -12.3125 62.175781 -14.054688 64.21875 -16.265625 C 66.269531 -18.472656 67.296875 -21.019531 67.296875 -23.90625 L 44.921875 -23.90625 L 44.921875 -34.078125 L 78.140625 -34.078125 C 78.273438 -33.242188 78.390625 -32.378906 78.484375 -31.484375 C 78.578125 -30.585938 78.625 -29.722656 78.625 -28.890625 C 78.625 -25.367188 78.078125 -21.976562 76.984375 -18.71875 C 75.898438 -15.457031 74.332031 -12.675781 72.28125 -10.375 C 69.46875 -6.851562 65.675781 -4.082031 60.90625 -2.0625 C 56.144531 -0.0507812 50.691406 0.953125 44.546875 0.953125 C 39.484375 0.953125 34.726562 0.140625 30.28125 -1.484375 C 25.832031 -3.117188 21.910156 -5.457031 18.515625 -8.5 C 15.128906 -11.539062 12.476562 -15.1875 10.5625 -19.4375 C 8.644531 -23.695312 7.6875 -28.414062 7.6875 -33.59375 C 7.6875 -38.457031 8.628906 -42.953125 10.515625 -47.078125 C 12.398438 -51.210938 15.050781 -54.832031 18.46875 -57.9375 C 21.894531 -61.039062 25.878906 -63.457031 30.421875 -65.1875 C 34.972656 -66.914062 39.875 -67.78125 45.125 -67.78125 Z M 45.125 -67.78125 "/></g></g></g><g fill="#f5f4f2" fill-opacity="1"><g transform="translate(499.35193, 162.568355)"><g><path d="M 62.203125 0 L 55.296875 -16.3125 L 22.65625 -16.3125 L 15.640625 0 L 4.984375 0 L 33.703125 -67.203125 L 44.921875 -67.203125 L 73.4375 0 Z M 33.796875 -42.4375 L 26.875 -26.296875 L 51.078125 -26.296875 L 43.96875 -42.8125 C 43.132812 -44.925781 42.300781 -47.085938 41.46875 -49.296875 C 40.632812 -51.503906 39.800781 -53.789062 38.96875 -56.15625 C 38.070312 -53.726562 37.207031 -51.359375 36.375 -49.046875 C 35.550781 -46.742188 34.691406 -44.539062 33.796875 -42.4375 Z M 33.796875 -42.4375 "/></g></g></g><g fill="#f5f4f2" fill-opacity="1"><g transform="translate(565.198252, 162.568355)"><g/></g></g><g fill="#f5f4f2" fill-opacity="1"><g transform="translate(587.374261, 162.568355)"><g/></g></g><g fill="#f5f4f2" fill-opacity="1"><g transform="translate(609.55027, 162.568355)"><g/></g></g><g fill="#f5f4f2" fill-opacity="1"><g transform="translate(631.725588, 162.568355)"><g><path d="M 71.140625 -67.296875 L 71.140625 -28.3125 C 71.140625 -22.75 69.875 -17.789062 67.34375 -13.4375 C 64.8125 -9.082031 61.304688 -5.65625 56.828125 -3.15625 C 52.347656 -0.664062 47.195312 0.578125 41.375 0.578125 C 35.488281 0.578125 30.320312 -0.664062 25.875 -3.15625 C 21.425781 -5.65625 17.9375 -9.082031 15.40625 -13.4375 C 12.875 -17.789062 11.609375 -22.75 11.609375 -28.3125 L 11.609375 -67.296875 L 21.984375 -67.296875 L 21.984375 -28.984375 C 21.984375 -25.210938 22.863281 -21.851562 24.625 -18.90625 C 26.382812 -15.96875 28.734375 -13.648438 31.671875 -11.953125 C 34.617188 -10.253906 37.851562 -9.40625 41.375 -9.40625 C 45.019531 -9.40625 48.347656 -10.253906 51.359375 -11.953125 C 54.367188 -13.648438 56.769531 -15.96875 58.5625 -18.90625 C 60.351562 -21.851562 61.25 -25.210938 61.25 -28.984375 L 61.25 -67.296875 Z M 71.140625 -67.296875 "/></g></g></g><g fill="#f5f4f2" fill-opacity="1"><g transform="translate(701.901595, 162.568355)"><g><path d="M 14.6875 -20.453125 C 17.757812 -16.609375 20.988281 -13.628906 24.375 -11.515625 C 27.769531 -9.410156 32.03125 -8.359375 37.15625 -8.359375 C 39.78125 -8.359375 42.304688 -8.722656 44.734375 -9.453125 C 47.171875 -10.191406 49.15625 -11.28125 50.6875 -12.71875 C 52.21875 -14.15625 52.984375 -15.960938 52.984375 -18.140625 C 52.984375 -21.335938 51.382812 -23.6875 48.1875 -25.1875 C 44.988281 -26.695312 40.507812 -27.898438 34.75 -28.796875 C 27.519531 -30.015625 21.773438 -32.175781 17.515625 -35.28125 C 13.265625 -38.382812 11.140625 -42.941406 11.140625 -48.953125 C 11.140625 -52.921875 12.320312 -56.34375 14.6875 -59.21875 C 17.050781 -62.101562 20.1875 -64.3125 24.09375 -65.84375 C 28 -67.382812 32.285156 -68.15625 36.953125 -68.15625 C 42.847656 -68.15625 47.953125 -67.128906 52.265625 -65.078125 C 56.585938 -63.035156 59.96875 -60.128906 62.40625 -56.359375 L 55.296875 -48.953125 C 53.242188 -51.898438 50.664062 -54.285156 47.5625 -56.109375 C 44.457031 -57.929688 40.828125 -58.84375 36.671875 -58.84375 C 32.515625 -58.84375 29.007812 -58.023438 26.15625 -56.390625 C 23.3125 -54.765625 21.890625 -52.476562 21.890625 -49.53125 C 21.890625 -46.144531 23.390625 -43.710938 26.390625 -42.234375 C 29.398438 -40.765625 33.40625 -39.613281 38.40625 -38.78125 C 41.664062 -38.269531 44.796875 -37.566406 47.796875 -36.671875 C 50.804688 -35.773438 53.507812 -34.609375 55.90625 -33.171875 C 58.3125 -31.734375 60.21875 -29.972656 61.625 -27.890625 C 63.039062 -25.804688 63.75 -23.257812 63.75 -20.25 C 63.75 -15.96875 62.644531 -12.238281 60.4375 -9.0625 C 58.226562 -5.894531 55.070312 -3.429688 50.96875 -1.671875 C 46.875 0.078125 42.046875 0.953125 36.484375 0.953125 C 30.585938 0.953125 25.238281 -0.0664062 20.4375 -2.109375 C 15.644531 -4.160156 11.425781 -7.488281 7.78125 -12.09375 Z M 14.6875 -20.453125 "/></g></g></g><g fill="#f5f4f2" fill-opacity="1"><g transform="translate(401.606823, 243.855159)"><g><path d="M 22.84375 -67.203125 L 47.515625 -31.296875 L 72.484375 -67.203125 L 82.265625 -67.203125 L 82.265625 0 L 71.90625 0 L 71.90625 -27.9375 C 71.90625 -32.03125 71.984375 -35.914062 72.140625 -39.59375 C 72.304688 -43.28125 72.578125 -46.945312 72.953125 -50.59375 L 50.5 -19.296875 L 44.15625 -19.296875 L 21.984375 -50.5 C 22.367188 -46.851562 22.640625 -43.203125 22.796875 -39.546875 C 22.960938 -35.898438 23.046875 -32.03125 23.046875 -27.9375 L 23.046875 0 L 12.671875 0 L 12.671875 -67.203125 Z M 22.84375 -67.203125 "/></g></g></g><g fill="#f5f4f2" fill-opacity="1"><g transform="translate(483.974838, 243.855159)"><g><path d="M 62.203125 0 L 55.296875 -16.3125 L 22.65625 -16.3125 L 15.640625 0 L 4.984375 0 L 33.703125 -67.203125 L 44.921875 -67.203125 L 73.4375 0 Z M 33.796875 -42.4375 L 26.875 -26.296875 L 51.078125 -26.296875 L 43.96875 -42.8125 C 43.132812 -44.925781 42.300781 -47.085938 41.46875 -49.296875 C 40.632812 -51.503906 39.800781 -53.789062 38.96875 -56.15625 C 38.070312 -53.726562 37.207031 -51.359375 36.375 -49.046875 C 35.550781 -46.742188 34.691406 -44.539062 33.796875 -42.4375 Z M 33.796875 -42.4375 "/></g></g></g><g fill="#f5f4f2" fill-opacity="1"><g transform="translate(549.830851, 243.855159)"><g><path d="M 27.359375 0 L 27.359375 -57.21875 L 5.859375 -57.21875 L 5.859375 -67.203125 L 59.8125 -67.203125 L 59.8125 -57.21875 L 37.734375 -57.21875 L 37.734375 0 Z M 27.359375 0 "/></g></g></g><g fill="#f5f4f2" fill-opacity="1"><g transform="translate(602.918867, 243.855159)"><g><path d="M 23.046875 -67.203125 L 23.046875 -38.296875 L 61.921875 -38.296875 L 61.921875 -67.203125 L 72.28125 -67.203125 L 72.28125 0 L 61.921875 0 L 61.921875 -28.3125 L 23.046875 -28.3125 L 23.046875 0 L 12.671875 0 L 12.671875 -67.203125 Z M 23.046875 -67.203125 "/></g></g></g><g fill="#f5f4f2" fill-opacity="1"><g transform="translate(675.206887, 243.855159)"><g><path d="M 12.671875 -67.203125 L 60.390625 -67.203125 L 60.390625 -57.21875 L 23.046875 -57.21875 L 23.046875 -39.453125 L 55.109375 -39.453125 L 55.109375 -29.46875 L 23.046875 -29.46875 L 23.046875 -9.984375 L 60.390625 -9.984375 L 60.390625 0 L 12.671875 0 Z M 12.671875 -67.203125 "/></g></g></g><g fill="#f5f4f2" fill-opacity="1"><g transform="translate(733.478894, 243.855159)"><g><path d="M 101.46875 -67.203125 L 77.5625 0 L 70.375 0 L 52.609375 -41.65625 L 35.046875 0 L 27.640625 0 L 4.890625 -67.203125 L 16.125 -67.203125 L 29.5625 -26.203125 C 30.144531 -24.472656 30.660156 -22.757812 31.109375 -21.0625 C 31.554688 -19.375 31.972656 -17.726562 32.359375 -16.125 C 32.867188 -17.726562 33.425781 -19.375 34.03125 -21.0625 C 34.632812 -22.757812 35.289062 -24.472656 36 -26.203125 L 48.28125 -55.578125 L 57.796875 -55.578125 L 69.703125 -26.296875 C 70.398438 -24.441406 71.050781 -22.679688 71.65625 -21.015625 C 72.269531 -19.359375 72.832031 -17.789062 73.34375 -16.3125 C 73.726562 -17.851562 74.160156 -19.488281 74.640625 -21.21875 C 75.117188 -22.945312 75.675781 -24.738281 76.3125 -26.59375 L 90.34375 -67.203125 Z M 101.46875 -67.203125 "/></g></g></g><g fill="#f5f4f2" fill-opacity="1"><g transform="translate(437.685131, 279.5921)"><g><path d="M 2.449219 0 L 4.558594 0 L 4.558594 -7.078125 L 11.449219 -7.078125 L 11.449219 -9.023438 L 4.558594 -9.023438 L 4.558594 -14.832031 L 12.070312 -14.832031 L 12.070312 -16.800781 L 2.449219 -16.800781 Z M 2.449219 0 "/></g></g></g><g fill="#f5f4f2" fill-opacity="1"><g transform="translate(453.213162, 279.5921)"><g><path d="M 8.734375 0.289062 C 12.792969 0.289062 15.238281 -2.375 15.238281 -6.839844 L 15.238281 -16.800781 L 13.128906 -16.800781 L 13.128906 -6.984375 C 13.128906 -3.550781 11.617188 -1.777344 8.734375 -1.777344 C 5.878906 -1.777344 4.34375 -3.550781 4.34375 -6.984375 L 4.34375 -16.800781 L 2.257812 -16.800781 L 2.257812 -6.839844 C 2.257812 -2.375 4.679688 0.289062 8.734375 0.289062 Z M 8.734375 0.289062 "/></g></g></g><g fill="#f5f4f2" fill-opacity="1"><g transform="translate(472.845204, 279.5921)"><g><path d="M 2.449219 0 L 12.71875 0 L 12.71875 -2.015625 L 4.558594 -2.015625 L 4.558594 -16.800781 L 2.449219 -16.800781 Z M 2.449219 0 "/></g></g></g><g fill="#f5f4f2" fill-opacity="1"><g transform="translate(488.445243, 279.5921)"><g><path d="M 2.449219 0 L 12.71875 0 L 12.71875 -2.015625 L 4.558594 -2.015625 L 4.558594 -16.800781 L 2.449219 -16.800781 Z M 2.449219 0 "/></g></g></g><g fill="#f5f4f2" fill-opacity="1"><g transform="translate(504.045278, 279.5921)"><g/></g></g><g fill="#f5f4f2" fill-opacity="1"><g transform="translate(512.133298, 279.5921)"><g><path d="M 8.039062 0.3125 C 11.710938 0.3125 14.089844 -1.488281 14.089844 -4.414062 C 14.089844 -6.886719 12.433594 -8.375 8.136719 -9.433594 C 4.871094 -10.222656 3.792969 -11.089844 3.792969 -12.480469 C 3.792969 -14.089844 5.230469 -15.097656 7.632812 -15.097656 C 10.105469 -15.097656 11.640625 -13.847656 11.6875 -11.832031 L 13.777344 -11.832031 C 13.753906 -15.097656 11.398438 -17.113281 7.632812 -17.113281 C 3.960938 -17.113281 1.632812 -15.3125 1.632812 -12.480469 C 1.632812 -9.886719 3.480469 -8.449219 7.609375 -7.464844 C 10.632812 -6.742188 11.902344 -5.902344 11.902344 -4.34375 C 11.902344 -2.6875 10.414062 -1.703125 8.039062 -1.703125 C 5.425781 -1.703125 3.601562 -3 3.550781 -5.160156 L 1.441406 -5.160156 C 1.464844 -1.871094 4.03125 0.3125 8.039062 0.3125 Z M 8.039062 0.3125 "/></g></g></g><g fill="#f5f4f2" fill-opacity="1"><g transform="translate(529.797333, 279.5921)"><g><path d="M 6.503906 0 L 8.617188 0 L 8.617188 -14.785156 L 14.28125 -14.785156 L 14.28125 -16.800781 L 0.816406 -16.800781 L 0.816406 -14.785156 L 6.503906 -14.785156 Z M 6.503906 0 "/></g></g></g><g fill="#f5f4f2" fill-opacity="1"><g transform="translate(547.053369, 279.5921)"><g><path d="M 0.40625 0 L 2.664062 0 L 4.199219 -3.816406 L 12.382812 -3.816406 L 13.96875 0 L 16.199219 0 L 9.289062 -16.800781 L 7.320312 -16.800781 Z M 5.015625 -5.785156 L 8.304688 -13.847656 L 11.59375 -5.785156 Z M 5.015625 -5.785156 "/></g></g></g><g fill="#f5f4f2" fill-opacity="1"><g transform="translate(565.797405, 279.5921)"><g><path d="M 9.886719 0.3125 C 13.96875 0.3125 17.28125 -2.160156 18.289062 -5.902344 L 16.054688 -5.902344 C 15.191406 -3.382812 12.816406 -1.800781 9.960938 -1.800781 C 6.214844 -1.800781 3.550781 -4.511719 3.550781 -8.398438 C 3.550781 -12.289062 6.214844 -15 9.960938 -15 C 12.742188 -15 15.023438 -13.511719 15.886719 -11.089844 L 18.144531 -11.089844 C 17.039062 -14.785156 13.847656 -17.113281 9.886719 -17.113281 C 4.945312 -17.113281 1.390625 -13.464844 1.390625 -8.398438 C 1.390625 -3.335938 4.945312 0.3125 9.886719 0.3125 Z M 9.886719 0.3125 "/></g></g></g><g fill="#f5f4f2" fill-opacity="1"><g transform="translate(587.517454, 279.5921)"><g><path d="M 2.449219 0 L 4.558594 0 L 4.558594 -7.558594 L 6.960938 -7.558594 C 7.609375 -7.558594 8.183594 -7.609375 8.710938 -7.703125 L 13.054688 0 L 15.503906 0 L 10.679688 -8.472656 C 11.640625 -9.097656 12.3125 -10.054688 12.792969 -11.328125 L 14.855469 -16.800781 L 12.625 -16.800781 L 10.894531 -12.167969 C 10.222656 -10.34375 9.238281 -9.574219 6.960938 -9.574219 L 4.558594 -9.574219 L 4.558594 -16.800781 L 2.449219 -16.800781 Z M 2.449219 0 "/></g></g></g><g fill="#f5f4f2" fill-opacity="1"><g transform="translate(606.069493, 279.5921)"><g/></g></g><g fill="#f5f4f2" fill-opacity="1"><g transform="translate(614.157513, 279.5921)"><g><path d="M 2.449219 0 L 8.257812 0 C 13.414062 0 16.871094 -3.433594 16.871094 -8.398438 C 16.871094 -13.367188 13.414062 -16.800781 8.257812 -16.800781 L 2.449219 -16.800781 Z M 4.558594 -2.015625 L 4.558594 -14.785156 L 8.160156 -14.785156 C 12.070312 -14.785156 14.710938 -12.214844 14.710938 -8.398438 C 14.710938 -4.585938 12.097656 -2.015625 8.257812 -2.015625 Z M 4.558594 -2.015625 "/></g></g></g><g fill="#f5f4f2" fill-opacity="1"><g transform="translate(634.557555, 279.5921)"><g><path d="M 2.449219 0 L 12.910156 0 L 12.910156 -1.96875 L 4.558594 -1.96875 L 4.558594 -7.585938 L 12.046875 -7.585938 L 12.046875 -9.527344 L 4.558594 -9.527344 L 4.558594 -14.832031 L 12.648438 -14.832031 L 12.648438 -16.800781 L 2.449219 -16.800781 Z M 2.449219 0 "/></g></g></g><g fill="#f5f4f2" fill-opacity="1"><g transform="translate(651.165586, 279.5921)"><g><path d="M 7.105469 0 L 9.070312 0 L 15.742188 -16.800781 L 13.511719 -16.800781 L 10.703125 -9.71875 L 8.089844 -3.046875 L 5.449219 -9.71875 L 2.664062 -16.800781 L 0.40625 -16.800781 Z M 7.105469 0 "/></g></g></g><g fill="#f5f4f2" fill-opacity="1"><g transform="translate(669.453633, 279.5921)"><g><path d="M 2.449219 0 L 12.910156 0 L 12.910156 -1.96875 L 4.558594 -1.96875 L 4.558594 -7.585938 L 12.046875 -7.585938 L 12.046875 -9.527344 L 4.558594 -9.527344 L 4.558594 -14.832031 L 12.648438 -14.832031 L 12.648438 -16.800781 L 2.449219 -16.800781 Z M 2.449219 0 "/></g></g></g><g fill="#f5f4f2" fill-opacity="1"><g transform="translate(686.061664, 279.5921)"><g><path d="M 2.449219 0 L 12.71875 0 L 12.71875 -2.015625 L 4.558594 -2.015625 L 4.558594 -16.800781 L 2.449219 -16.800781 Z M 2.449219 0 "/></g></g></g><g fill="#f5f4f2" fill-opacity="1"><g transform="translate(701.6617, 279.5921)"><g><path d="M 10.078125 0.3125 C 15.191406 0.3125 18.792969 -3.289062 18.792969 -8.398438 C 18.792969 -13.511719 15.191406 -17.113281 10.078125 -17.113281 C 4.96875 -17.113281 1.390625 -13.511719 1.390625 -8.398438 C 1.390625 -3.289062 4.96875 0.3125 10.078125 0.3125 Z M 3.550781 -8.398438 C 3.550781 -12.3125 6.214844 -15 10.078125 -15 C 13.945312 -15 16.609375 -12.3125 16.609375 -8.398438 C 16.609375 -4.488281 13.945312 -1.800781 10.078125 -1.800781 C 6.214844 -1.800781 3.550781 -4.488281 3.550781 -8.398438 Z M 3.550781 -8.398438 "/></g></g></g><g fill="#f5f4f2" fill-opacity="1"><g transform="translate(723.957742, 279.5921)"><g><path d="M 2.449219 0 L 4.558594 0 L 4.558594 -5.519531 L 8.136719 -5.519531 C 11.929688 -5.519531 14.375 -7.703125 14.375 -11.160156 C 14.375 -14.59375 11.929688 -16.800781 8.136719 -16.800781 L 2.449219 -16.800781 Z M 4.558594 -7.488281 L 4.558594 -14.785156 L 8.089844 -14.785156 C 10.800781 -14.785156 12.214844 -13.535156 12.214844 -11.136719 C 12.214844 -8.734375 10.800781 -7.488281 8.089844 -7.488281 Z M 4.558594 -7.488281 "/></g></g></g><g fill="#f5f4f2" fill-opacity="1"><g transform="translate(741.429779, 279.5921)"><g><path d="M 2.449219 0 L 12.910156 0 L 12.910156 -1.96875 L 4.558594 -1.96875 L 4.558594 -7.585938 L 12.046875 -7.585938 L 12.046875 -9.527344 L 4.558594 -9.527344 L 4.558594 -14.832031 L 12.648438 -14.832031 L 12.648438 -16.800781 L 2.449219 -16.800781 Z M 2.449219 0 "/></g></g></g><g fill="#f5f4f2" fill-opacity="1"><g transform="translate(758.03781, 279.5921)"><g><path d="M 2.449219 0 L 4.558594 0 L 4.558594 -6.023438 L 8.257812 -6.023438 L 12.359375 0 L 14.902344 0 L 10.679688 -6.238281 C 13.128906 -6.839844 14.640625 -8.6875 14.640625 -11.398438 C 14.640625 -14.734375 12.335938 -16.800781 8.855469 -16.800781 L 2.449219 -16.800781 Z M 4.558594 -8.039062 L 4.558594 -14.785156 L 8.617188 -14.785156 C 11.0625 -14.785156 12.480469 -13.535156 12.480469 -11.398438 C 12.480469 -9.265625 11.0625 -8.039062 8.617188 -8.039062 Z M 4.558594 -8.039062 "/></g></g></g><g clip-path="url(#19413e7430)"><path fill="#f7f4ed" d="M 620.558594 95.648438 L 620.558594 98.285156 L 614.578125 100.597656 L 614.578125 95.59375 C 614.578125 91.011719 611.148438 87.035156 606.601562 86.695312 C 606.019531 86.652344 605.4375 86.667969 604.859375 86.746094 C 604.28125 86.820312 603.714844 86.953125 603.160156 87.144531 C 602.609375 87.335938 602.082031 87.578125 601.578125 87.878906 C 601.078125 88.175781 600.609375 88.523438 600.175781 88.914062 C 599.742188 89.308594 599.355469 89.742188 599.011719 90.214844 C 598.664062 90.6875 598.371094 91.191406 598.125 91.726562 C 597.882812 92.257812 597.695312 92.8125 597.5625 93.382812 C 597.429688 93.953125 597.355469 94.535156 597.34375 95.121094 C 597.3125 96.371094 598.242188 97.503906 599.480469 97.507812 C 599.761719 97.511719 600.03125 97.460938 600.292969 97.359375 C 600.550781 97.257812 600.785156 97.109375 600.988281 96.914062 C 601.191406 96.722656 601.351562 96.5 601.46875 96.242188 C 601.585938 95.988281 601.648438 95.71875 601.664062 95.4375 C 601.753906 93.429688 602.980469 91.601562 604.925781 91.136719 C 605.242188 91.058594 605.5625 91.019531 605.890625 91.015625 C 606.214844 91.011719 606.539062 91.042969 606.855469 91.113281 C 607.175781 91.183594 607.480469 91.285156 607.777344 91.425781 C 608.070312 91.566406 608.347656 91.738281 608.601562 91.9375 C 608.859375 92.140625 609.089844 92.371094 609.292969 92.625 C 609.5 92.878906 609.671875 93.15625 609.816406 93.449219 C 609.957031 93.746094 610.066406 94.050781 610.136719 94.371094 C 610.210938 94.691406 610.246094 95.015625 610.246094 95.339844 C 610.246094 96.363281 610.097656 97.363281 609.796875 98.335938 C 609.496094 99.3125 609.058594 100.222656 608.484375 101.0625 C 607.910156 101.90625 607.222656 102.644531 606.425781 103.277344 C 605.628906 103.910156 604.753906 104.410156 603.808594 104.777344 L 591.375 109.597656 L 591.375 95.316406 C 591.375 94.363281 591.464844 93.421875 591.648438 92.488281 C 591.828125 91.554688 592.101562 90.648438 592.457031 89.765625 C 592.816406 88.886719 593.253906 88.046875 593.773438 87.253906 C 594.292969 86.457031 594.886719 85.71875 595.546875 85.039062 C 596.210938 84.359375 596.933594 83.753906 597.714844 83.214844 C 598.492188 82.675781 599.320312 82.21875 600.1875 81.839844 C 601.054688 81.464844 601.953125 81.175781 602.878906 80.972656 C 603.804688 80.773438 604.738281 80.664062 605.683594 80.644531 C 613.863281 80.488281 620.558594 87.421875 620.558594 95.648438 Z M 620.558594 95.648438 " fill-opacity="1" fill-rule="nonzero"/></g><g clip-path="url(#45fa36b877)"><path fill="#f6851f" d="M 620.558594 106.941406 L 620.558594 116.171875 L 591.375 127.488281 L 591.375 118.253906 Z M 620.558594 106.941406 " fill-opacity="1" fill-rule="nonzero"/></g><g clip-path="url(#545e6534ca)"><path fill="#f6851f" d="M 620.558594 124.828125 L 620.558594 134.0625 L 591.375 145.371094 L 591.375 136.144531 Z M 620.558594 124.828125 " fill-opacity="1" fill-rule="nonzero"/></g><g clip-path="url(#05dd95ba1e)"><path fill="#f7f4ed" d="M 620.558594 142.710938 L 620.558594 158.328125 C 620.558594 166.542969 613.863281 173.484375 605.683594 173.328125 C 604.738281 173.308594 603.804688 173.199219 602.878906 172.996094 C 601.953125 172.796875 601.058594 172.507812 600.1875 172.128906 C 599.320312 171.753906 598.496094 171.296875 597.714844 170.757812 C 596.933594 170.21875 596.210938 169.609375 595.550781 168.933594 C 594.886719 168.253906 594.296875 167.515625 593.777344 166.71875 C 593.253906 165.925781 592.816406 165.085938 592.457031 164.207031 C 592.101562 163.324219 591.832031 162.417969 591.648438 161.484375 C 591.464844 160.550781 591.375 159.609375 591.375 158.65625 L 591.375 154.027344 L 600.199219 150.605469 C 600.511719 150.484375 600.828125 150.382812 601.152344 150.300781 C 601.476562 150.21875 601.804688 150.15625 602.136719 150.113281 C 602.46875 150.070312 602.800781 150.050781 603.136719 150.046875 C 603.46875 150.046875 603.804688 150.066406 604.132812 150.105469 C 604.464844 150.144531 604.796875 150.203125 605.121094 150.28125 C 605.445312 150.359375 605.761719 150.457031 606.078125 150.578125 C 606.390625 150.695312 606.695312 150.832031 606.988281 150.988281 C 607.285156 151.140625 607.574219 151.316406 607.847656 151.503906 C 608.125 151.695312 608.386719 151.902344 608.636719 152.121094 C 608.886719 152.34375 609.125 152.582031 609.347656 152.832031 C 609.570312 153.082031 609.773438 153.347656 609.964844 153.625 C 610.15625 153.898438 610.328125 154.1875 610.484375 154.484375 C 610.640625 154.78125 610.777344 155.085938 610.898438 155.402344 C 611.015625 155.714844 611.113281 156.035156 611.195312 156.363281 C 611.277344 156.6875 611.335938 157.019531 611.375 157.351562 C 611.417969 157.683594 611.4375 158.019531 611.4375 158.355469 C 611.4375 161.035156 609.621094 163.472656 607 163.960938 C 606.605469 164.035156 606.210938 164.070312 605.808594 164.058594 C 605.410156 164.046875 605.015625 163.992188 604.628906 163.894531 C 604.242188 163.796875 603.867188 163.65625 603.511719 163.476562 C 603.152344 163.296875 602.820312 163.082031 602.507812 162.828125 C 602.195312 162.574219 601.917969 162.292969 601.667969 161.976562 C 601.417969 161.664062 601.207031 161.324219 601.03125 160.964844 C 600.855469 160.601562 600.71875 160.226562 600.625 159.835938 C 600.53125 159.445312 600.480469 159.050781 600.472656 158.648438 C 600.457031 157.753906 599.910156 156.921875 599.039062 156.730469 C 598.765625 156.664062 598.488281 156.664062 598.214844 156.726562 C 597.9375 156.789062 597.6875 156.910156 597.46875 157.085938 C 597.246094 157.261719 597.074219 157.480469 596.949219 157.734375 C 596.828125 157.992188 596.765625 158.261719 596.765625 158.546875 C 596.765625 159.171875 596.828125 159.792969 596.953125 160.40625 C 597.078125 161.019531 597.265625 161.613281 597.511719 162.1875 C 597.757812 162.761719 598.058594 163.308594 598.414062 163.820312 C 598.769531 164.335938 599.171875 164.808594 599.625 165.238281 C 600.074219 165.671875 600.566406 166.050781 601.09375 166.382812 C 601.621094 166.714844 602.179688 166.988281 602.761719 167.207031 C 603.347656 167.425781 603.945312 167.582031 604.5625 167.679688 C 605.175781 167.773438 605.792969 167.804688 606.417969 167.777344 C 611.355469 167.53125 615.144531 163.25 615.144531 158.277344 L 615.144531 144.808594 Z M 620.558594 142.710938 " fill-opacity="1" fill-rule="nonzero"/></g></svg>